# xmcd
#
# Track frame offsets:
#	150
#	18204
#	33950
#	52350
#	69769
#	89017
#	106492
#	123730
#	143193
#	161836
#	178487
#	196329
#	211457
#	229016
#	244532
#
# Disc length: 3550 seconds
#
# Revision: 0
# Processed by: cddbd v1.5.2PL0 Copyright (c) Steve Scherf et al.
# Submitted via: audiograbber 1.83.01
#
DISCID=dc0ddc0f
DTITLE=VARIOS - PAGODE SAUDADE - CD-2
DYEAR=1900
DGENRE=PAGODE
TTITLE0=SÓ PRA CONTRARIAR - ESSA TAL LIBERDADE
TTITLE1=RAÇA NEGRA - CHEIA DE MANIAS
TTITLE2=EXALTASAMBA - GAMEI
TTITLE3=SOWETO - FAROL DAS ESTRELAS
TTITLE4=OS TRAVESSOS - MEU QUERUBIM
TTITLE5=OS MORENOS - MINA DE FÉ
TTITLE6=KATINGUELÊ - INARAÍ
TTITLE7=NEGRITUDE JUNIOR - COHAB CITY-VEM PRA CÁ
TTITLE8=GRUPO RAÇA - EU E ELA
TTITLE9=ART POPULAR - VALEU DEMAIS
TTITLE10=KARAMETADE - MORANGO DO NORDESTE
TTITLE11=BANDA BRASIL - PODEROSA
TTITLE12=RAZÃO BRASILEIRA - EU MENTI
TTITLE13=ELIANA DE LIMA - DESEJO DE AMAR
TTITLE14=ELSON - TALIMÃ
EXTD=
EXTT0=
EXTT1=
EXTT2=
EXTT3=
EXTT4=
EXTT5=
EXTT6=
EXTT7=
EXTT8=
EXTT9=
EXTT10=
EXTT11=
EXTT12=
EXTT13=
EXTT14=
PLAYORDER=
